<?xml version="1.0" standalone="no"?>
<!DOCTYPE svg PUBLIC "-//W3C//DTD SVG 20010904//EN"
 "http://www.w3.org/TR/2001/REC-SVG-20010904/DTD/svg10.dtd">
<svg version="1.0" xmlns="http://www.w3.org/2000/svg"
 width="512.000000pt" height="435.000000pt" viewBox="0 0 512.000000 435.000000"
 preserveAspectRatio="xMidYMid meet">

<g transform="translate(0.000000,435.000000) scale(0.100000,-0.100000)"
fill="#ff0000" stroke="none">
<path d="M2494 4341 c-56 -14 -135 -65 -179 -113 -41 -46 -2194 -3517 -2247
-3623 -46 -92 -62 -155 -62 -245 0 -65 5 -96 21 -132 46 -101 146 -175 283
-209 46 -12 428 -14 2255 -14 2107 0 2203 1 2260 18 189 58 285 168 287 324 1
88 -17 167 -56 246 -17 35 -521 856 -1121 1826 -801 1296 -1104 1778 -1142
1818 -82 85 -206 128 -299 104z m178 -1397 c23 -16 51 -47 62 -69 21 -39 21
-50 21 -690 0 -640 0 -651 -21 -690 -79 -152 -317 -131 -364 32 -8 26 -10 235
-8 680 l3 641 30 43 c65 92 188 116 277 53z m2 -1988 c104 -79 114 -213 21
-302 -103 -100 -251 -71 -319 63 -32 64 -14 157 42 217 41 44 78 57 153 53 55
-2 73 -7 103 -31z"/>
</g>
</svg>
